HIERARCHY
ROOT Hips
{
	OFFSET 0.000000 0.000000 0.000000
	CHANNELS 6 Xposition Yposition Zposition Zrotation Yrotation Xrotation 
	JOINT LHipJoint
	{
		OFFSET 0.000000 0.000000 0.000000
		CHANNELS 3 Zrotation Yrotation Xrotation
		JOINT LeftUpLeg
		{
			OFFSET 1.363060 -1.794630 0.839290
			CHANNELS 3 Zrotation Yrotation Xrotation
			JOINT LeftLeg
			{
				OFFSET 2.448110 -6.726130 0.000000
				CHANNELS 3 Zrotation Yrotation Xrotation
				JOINT LeftFoot
				{
					OFFSET 2.562200 -7.039590 0.000000
					CHANNELS 3 Zrotation Yrotation Xrotation
					JOINT LeftToeBase
					{
						OFFSET 0.157640 -0.433110 2.322550
						CHANNELS 3 Zrotation Yrotation Xrotation
						End Site
						{
							OFFSET 0.000000 0.000000 0.000000
						}
					}
				}
			}
		}
	}
	JOINT RHipJoint
	{
		OFFSET 0.000000 0.000000 0.000000
		CHANNELS 3 Zrotation Yrotation Xrotation
		JOINT RightUpLeg
		{
			OFFSET -1.305520 -1.794630 0.839290
			CHANNELS 3 Zrotation Yrotation Xrotation
			JOINT RightLeg
			{
				OFFSET -2.542530 -6.985550 0.000000
				CHANNELS 3 Zrotation Yrotation Xrotation
				JOINT RightFoot
				{
					OFFSET -2.568260 -7.056230 0.000000
					CHANNELS 3 Zrotation Yrotation Xrotation
					JOINT RightToeBase
					{
						OFFSET -0.164730 -0.452590 2.363150
						CHANNELS 3 Zrotation Yrotation Xrotation
						End Site
						{
							OFFSET 0.000000 0.000000 0.000000
						}
					}
				}
			}
		}
	}
	JOINT LowerBack
	{
		OFFSET 0.000000 0.000000 0.000000
		CHANNELS 3 Zrotation Yrotation Xrotation
		JOINT Spine
		{
			OFFSET 0.028270 2.035590 -0.193380
			CHANNELS 3 Zrotation Yrotation Xrotation
			JOINT Spine1
			{
				OFFSET 0.056720 2.048850 -0.042750
				CHANNELS 3 Zrotation Yrotation Xrotation
				JOINT Neck
				{
					OFFSET 0.000000 0.000000 0.000000
					CHANNELS 3 Zrotation Yrotation Xrotation
					JOINT Neck1
					{
						OFFSET -0.054170 1.746240 0.172020
						CHANNELS 3 Zrotation Yrotation Xrotation
						JOINT Head
						{
							OFFSET 0.104070 1.761360 -0.123970
							CHANNELS 3 Zrotation Yrotation Xrotation
							End Site
							{
								OFFSET 0.000000 0.000000 0.000000
							}
						}
					}
				}
				JOINT LeftShoulder
				{
					OFFSET 0.000000 0.000000 0.000000
					CHANNELS 3 Zrotation Yrotation Xrotation
					JOINT LeftArm
					{
						OFFSET 3.362410 1.200890 -0.311210
						CHANNELS 3 Zrotation Yrotation Xrotation
						JOINT LeftForeArm
						{
							OFFSET 4.983000 -0.000000 -0.000000
							CHANNELS 3 Zrotation Yrotation Xrotation
							JOINT LeftHand
							{
								OFFSET 3.483560 -0.000000 -0.000000
								CHANNELS 3 Zrotation Yrotation Xrotation
								JOINT LeftFingerBase
								{
									OFFSET 0.000000 0.000000 0.000000
									CHANNELS 3 Zrotation Yrotation Xrotation
									JOINT LeftHandIndex1
									{
										OFFSET 0.715260 -0.000000 -0.000000
										CHANNELS 3 Zrotation Yrotation Xrotation
										End Site
										{
											OFFSET 0.000000 0.000000 0.000000
										}
									}
								}
								JOINT LThumb
								{
									OFFSET 0.000000 0.000000 0.000000
									CHANNELS 3 Zrotation Yrotation Xrotation
									End Site
									{
										OFFSET 0.000000 0.000000 0.000000
									}
								}
							}
						}
					}
				}
				JOINT RightShoulder
				{
					OFFSET 0.000000 0.000000 0.000000
					CHANNELS 3 Zrotation Yrotation Xrotation
					JOINT RightArm
					{
						OFFSET -3.136600 1.374050 -0.404650
						CHANNELS 3 Zrotation Yrotation Xrotation
						JOINT RightForeArm
						{
							OFFSET -5.241900 -0.000000 -0.000000
							CHANNELS 3 Zrotation Yrotation Xrotation
							JOINT RightHand
							{
								OFFSET -3.444170 -0.000000 -0.000000
								CHANNELS 3 Zrotation Yrotation Xrotation
								JOINT RightFingerBase
								{
									OFFSET 0.000000 0.000000 0.000000
									CHANNELS 3 Zrotation Yrotation Xrotation
									JOINT RightHandIndex1
									{
										OFFSET -0.622530 -0.000000 -0.000000
										CHANNELS 3 Zrotation Yrotation Xrotation
										End Site
										{
											OFFSET 0.000000 0.000000 0.000000
										}
									}
								}
								JOINT RThumb
								{
									OFFSET 0.000000 0.000000 0.000000
									CHANNELS 3 Zrotation Yrotation Xrotation
									End Site
									{
										OFFSET 0.000000 0.000000 0.000000
									}
								}
							}
						}
					}
				}
			}
		}
	}
}
MOTION
Frames: 6
Frame Time: 0.008333
-15.426275 14.985137 19.916415 19.492974 -70.013822 -19.598270 5.386199 4.178233 1.513125 -15.240000 -8.258055 14.450976 0.490441 6.469609 24.972287 -3.287336 20.001853 -20.418497 5.658000 -14.088500 -43.593300 -10.135405 -1.545249 -2.627272 6.644112 1.771413 -47.293629 -9.171126 -20.683667 59.647844 -1.169465 11.646804 1.566231 -0.063100 -1.620600 4.458300 -6.757602 4.611961 14.455878 -0.042900 4.997551 -0.615382 0.754050 2.910884 -7.361609 -11.369764 -12.621459 -1.442407 7.479125 -17.158501 6.365420 4.383400 -8.568200 2.887200 2.772806 -7.390067 2.991830 -79.087681 36.082417 54.041411 112.932496 -56.269922 -82.844902 0.067304 0.109836 -55.461908 16.834368 49.446334 12.852600 -7.125000 0.000000 0.000000 -50.882500 76.130500 -39.139300 -6.129030 7.633390 0.573223 8.435780 51.632283 -22.188573 -9.446614 15.035652 -2.816260 1.804901 -0.641669 21.449369 -20.690323 -34.229473 13.046500 7.125000 0.000000 0.000000 13.146800 -65.492800 -6.560300 
-15.439522 14.985651 19.921344 19.084796 -70.047211 -19.197948 5.391532 4.169023 1.505342 -15.177998 -8.353424 14.498884 0.504341 6.489655 25.048760 -3.317094 20.142575 -20.510033 5.609500 -14.038900 -43.393600 -10.127504 -1.557711 -2.616326 6.785137 1.753679 -47.248223 -9.175982 -20.687650 59.668745 -1.174365 11.623443 1.388798 -0.051800 -1.468100 4.037700 -6.624075 4.615911 14.420966 -0.040233 5.025128 -0.614423 0.778203 2.922671 -7.370416 -11.725370 -12.634518 -1.333653 7.837660 -17.224266 6.320201 4.644500 -8.603200 2.974700 2.737118 -7.408797 2.994885 -78.893146 36.067300 54.159297 112.928274 -56.274648 -82.829389 0.085369 0.108171 -55.316325 17.658766 49.029109 13.419000 -7.125000 0.000000 0.000000 -48.818300 76.241400 -37.507600 -6.155502 7.619722 0.571572 8.555002 51.633725 -22.158690 -9.428823 15.004938 -2.792108 1.795844 -0.656157 21.530925 -20.526199 -33.811973 12.805800 7.125000 0.000000 0.000000 12.985500 -65.035400 -6.341200 
-15.451536 14.983905 19.927608 18.933013 -70.084656 -19.063865 5.397111 4.158313 1.499911 -15.252820 -8.477566 14.549397 0.534860 6.550654 25.239120 -3.341467 20.328325 -20.710742 5.553000 -13.980800 -43.160400 -10.123798 -1.562126 -2.611635 6.835868 1.717869 -47.215467 -9.196111 -20.692334 59.724176 -1.180691 11.665124 1.259464 -0.045100 -1.370600 3.769200 -6.592837 4.592958 14.405840 -0.017915 5.002803 -0.625937 0.809310 2.911303 -7.384040 -11.501117 -12.710213 -1.403704 7.663474 -17.302993 6.376521 4.491800 -8.642600 2.965300 2.764947 -7.401107 2.990444 -78.996141 36.120648 54.117495 112.834328 -56.296297 -82.724684 0.105302 0.103725 -54.975250 18.466411 48.525542 13.950600 -7.125000 0.000000 0.000000 -46.451700 76.288600 -35.580800 -6.137880 7.624531 0.566952 8.679693 51.665280 -21.766944 -9.500898 15.034136 -2.754309 1.770264 -0.678256 21.327001 -20.260138 -32.874200 12.324200 7.125000 0.000000 0.000000 12.543200 -64.025800 -5.827700 
-15.454822 14.980722 19.925041 18.720833 -69.983034 -18.775279 5.399403 4.140290 1.495779 -15.227421 -8.626671 14.372840 0.569600 6.630677 25.454657 -3.368608 20.447197 -20.774007 5.515800 -13.942100 -43.005900 -10.123863 -1.570373 -2.607394 6.866980 1.554255 -47.318447 -9.219835 -20.697071 59.785940 -1.183999 11.742264 1.248153 -0.050500 -1.450300 3.988800 -6.614064 4.535021 14.426884 0.000981 4.921958 -0.657837 0.818788 2.876047 -7.481990 -11.096945 -12.842165 -1.457067 7.424982 -17.452598 6.357140 4.271200 -8.711400 2.887500 2.795584 -7.401869 2.989318 -78.929799 36.125313 54.098678 112.821818 -56.290193 -82.695185 0.123817 0.096312 -54.608778 19.070742 47.946205 14.302200 -7.125000 0.000000 0.000000 -44.003700 76.195400 -33.488300 -6.113971 7.654125 0.540528 8.811285 51.669444 -21.541776 -9.510590 15.040969 -2.797679 1.807007 -0.643227 20.994136 -20.201133 -33.691863 12.573900 7.125000 0.000000 0.000000 13.270900 -64.835400 -6.421400 
-15.443321 14.973534 19.893619 17.932558 -69.575587 -17.636738 5.390014 4.098339 1.487233 -14.727056 -8.827801 13.610558 0.599321 6.718557 25.628952 -3.402450 20.364848 -20.468560 5.530900 -13.957900 -43.068900 -10.125908 -1.594119 -2.588258 7.045852 1.258607 -47.748523 -9.242500 -20.724978 59.857746 -1.175670 11.568058 1.150038 -0.042800 -1.335300 3.671900 -6.805307 4.373685 14.429390 0.056466 4.675518 -0.752740 1.105990 2.779710 -7.751724 -10.960901 -12.913918 -1.561358 7.340046 -17.531954 6.387938 4.154700 -8.750400 2.912700 2.822671 -7.430447 2.970484 -78.865099 36.106211 54.130796 112.817063 -56.265147 -82.669863 0.139059 0.089910 -54.330279 19.780531 47.406861 14.737600 -7.125000 0.000000 0.000000 -41.599600 76.149200 -31.497600 -6.109753 7.694416 0.504740 8.818912 51.730045 -21.542892 -9.502070 14.971309 -2.770117 1.795214 -0.665301 20.953780 -20.152169 -33.230510 12.387300 7.125000 0.000000 0.000000 12.935000 -64.352500 -6.111200 
-15.452768 14.971069 19.900807 17.613898 -69.586739 -17.444696 5.402348 4.089736 1.477575 -14.765503 -8.970135 13.736308 0.638464 6.784945 25.857264 -3.383235 20.428133 -20.727825 5.464800 -13.888900 -42.794100 -10.114179 -1.603345 -2.582108 7.118225 1.234224 -47.588677 -9.245907 -20.714670 59.867563 -1.179068 11.591328 1.116197 -0.047900 -1.411900 3.882900 -6.734310 4.348448 14.521721 0.076158 4.648971 -0.744532 1.168721 2.766104 -7.777354 -11.080602 -12.962507 -1.524203 7.503782 -17.617823 6.318633 4.257800 -8.790200 2.930700 2.814956 -7.441777 2.976780 -78.843710 36.141534 54.230537 112.885756 -56.258889 -82.700269 0.157039 0.088324 -54.186727 20.738815 46.814900 15.342500 -7.125000 0.000000 0.000000 -38.796700 76.148600 -29.247300 -6.118115 7.692083 0.501907 8.813689 51.802770 -21.720027 -9.423617 14.879729 -2.744060 1.799131 -0.658202 21.026617 -19.784625 -33.191470 12.161000 7.125000 0.000000 0.000000 13.352900 -64.233900 -6.275100 
